<svg width="22" height="22" viewBox="0 0 22 22" fill="none" xmlns="http://www.w3.org/2000/svg">
<path d="M8 1V4M14 1V4M8 18V21M14 18V21M18 8H21M18 13H21M1 8H4M1 13H4M8.8 18H13.2C14.8802 18 15.7202 18 16.362 17.673C16.9265 17.3854 17.3854 16.9265 17.673 16.362C18 15.7202 18 14.8802 18 13.2V8.8C18 7.11984 18 6.27976 17.673 5.63803C17.3854 5.07354 16.9265 4.6146 16.362 4.32698C15.7202 4 14.8802 4 13.2 4H8.8C7.11984 4 6.27976 4 5.63803 4.32698C5.07354 4.6146 4.6146 5.07354 4.32698 5.63803C4 6.27976 4 7.11984 4 8.8V13.2C4 14.8802 4 15.7202 4.32698 16.362C4.6146 16.9265 5.07354 17.3854 5.63803 17.673C6.27976 18 7.11984 18 8.8 18Z" stroke="white" stroke-width="2" stroke-linecap="round" stroke-linejoin="round"/>
</svg>
