<?xml version="1.0" encoding="UTF-8" standalone="no"?>
<!-- Created with Inkscape (http://www.inkscape.org/) -->

<svg
   version="1.1"
   id="svg9"
   width="407.17401"
   height="348.06601"
   viewBox="0 0 407.17401 348.06601"
   sodipodi:docname="logo.svg"
   inkscape:version="1.2.2 (732a01da63, 2022-12-09)"
   xmlns:inkscape="http://www.inkscape.org/namespaces/inkscape"
   xmlns:sodipodi="http://sodipodi.sourceforge.net/DTD/sodipodi-0.dtd"
   xmlns="http://www.w3.org/2000/svg"
   xmlns:svg="http://www.w3.org/2000/svg">
  <defs
     id="defs13" />
  <sodipodi:namedview
     id="namedview11"
     pagecolor="#ffffff"
     bordercolor="#000000"
     borderopacity="0.25"
     inkscape:showpageshadow="2"
     inkscape:pageopacity="0.0"
     inkscape:pagecheckerboard="0"
     inkscape:deskcolor="#d1d1d1"
     showgrid="false"
     inkscape:zoom="0.97717226"
     inkscape:cx="127.92013"
     inkscape:cy="305.98494"
     inkscape:window-width="1920"
     inkscape:window-height="1017"
     inkscape:window-x="-8"
     inkscape:window-y="-8"
     inkscape:window-maximized="1"
     inkscape:current-layer="svg9" />
  <g
     inkscape:groupmode="layer"
     id="layer1"
     inkscape:label="Image 1">
    <path
       id="path243"
       style="color:#000000;fill:#000000;-inkscape-stroke:none"
       d="M 234.48633,10 135.83789,20.550781 75.687497,48.230464 22.962891,99.8789 10,160.74609 l 53.535156,71.93555 73.232424,-2.07812 68.85352,57.20312 19.61133,-14.22852 0.95312,16.85548 66.46484,47.63281 28.63086,-1.02148 L 316.1211,326.52148 292.85157,279.07031 365.75,226.58204 397.17383,170.90039 372.08008,59.06446 Z M 232.65039,25.484375 359.08203,70.56837 365.5,99.17382 h -76.73047 l -20.97851,26.09571 h -74.7207 L 176.01563,100.23828 190.4043,80.09179 h 54.26367 a 14.071214,14.071214 0 0 0 11.88867,6.55664 14.071214,14.071214 0 0 0 14.07032,-14.07226 14.071214,14.071214 0 0 0 -14.07032,-14.07031 14.071214,14.071214 0 0 0 -11.78125,6.38671 h -62.19336 l -15.68554,21.96094 -5.55078,-8.14648 H 66.296877 L 84.439458,60.93554 139.92969,35.40039 Z M 50.78125,93.90626 H 153.3086 l 31.72461,46.56444 h 90.04101 l 20.97852,-26.09569 h 72.85937 l 8.07032,35.96679 h -50.48438 a 14.071214,14.071214 0 0 0 -11.32812,-5.72462 14.071214,14.071214 0 0 0 -14.07032,14.07033 14.071214,14.071214 0 0 0 14.07032,14.07226 14.071214,14.071214 0 0 0 12.24804,-7.21681 h 52.97656 l 0.66797,2.97852 -14.57422,25.82617 H 275.65625 L 263.88867,175.41406 H 165.32032 L 136.67774,125.29102 33.195313,124.80468 36.875,107.5293 Z m -20.820312,46.08397 97.871092,0.45898 28.66602,50.16602 h 10.99219 l 18.77148,33.48437 25.65235,-1.28124 a 14.071214,14.071214 0 0 0 11.67578,6.24804 14.071214,14.071214 0 0 0 14.07226,-14.07226 14.071214,14.071214 0 0 0 -14.07226,-14.07032 14.071214,14.071214 0 0 0 -11.96094,6.68946 l -16.7168,0.83593 -9.99804,-17.83398 h 70.52539 l 11.76757,18.93164 h 90.70313 l -3.75391,6.65234 -80.60547,58.03516 23.76172,48.45704 h -0.0234 l -56.3379,-40.37696 -2.11718,-37.38281 -32.58203,23.63673 -64.18164,-53.32032 -71.062503,2.01563 -5.08399,-6.83203 15.908201,-21.35157 h 5.60938 a 14.071214,14.071214 0 0 0 11.16992,5.57618 14.071214,14.071214 0 0 0 14.072272,-14.07228 14.071214,14.071214 0 0 0 -14.072272,-14.07031 14.071214,14.071214 0 0 0 -12.33008,7.36523 H 74.201167 L 56.451172,197.70312 26.298828,157.18555 Z" />
  </g>
</svg>
